<svg xmlns="http://www.w3.org/2000/svg" viewBox="0 0 36 36">
  <defs>
    <linearGradient id="h" x1="0" y1="0" x2="0" y2="1">
      <stop offset="0%" stop-color="#FFC758"/>
      <stop offset="55%" stop-color="#FFB020"/>
      <stop offset="100%" stop-color="#C97F0E"/>
    </linearGradient>
    <radialGradient id="i" cx="42%" cy="35%" r="40%">
      <stop offset="0%" stop-color="rgba(255,255,255,0.55)"/>
      <stop offset="100%" stop-color="rgba(255,255,255,0)"/>
    </radialGradient>
  </defs>
  <circle cx="18" cy="18" r="16" fill="none" stroke="#26262A" stroke-width="1"/>
  <path d="M 2 18 A 16 16 0 0 1 34 18 Z" fill="url(#h)"/>
  <path d="M 2 18 A 16 16 0 0 1 34 18 Z" fill="url(#i)"/>
  <path d="M 2 18 A 16 8 0 0 1 34 18" fill="none" stroke="#0A0A0B" stroke-width="0.9" opacity="0.55"/>
  <path d="M 18 2 A 8 16 0 0 1 18 34" fill="none" stroke="#0A0A0B" stroke-width="0.9" opacity="0.4"/>
  <path d="M 18 2 A 8 16 0 0 0 18 34" fill="none" stroke="#0A0A0B" stroke-width="0.9" opacity="0.4"/>
  <line x1="2" y1="18" x2="34" y2="18" stroke="#0A0A0B" stroke-width="1"/>
  <path d="M 2 18 A 16 16 0 0 0 34 18" fill="none" stroke="#26262A" stroke-width="1"/>
  <line x1="2" y1="18" x2="5" y2="18" stroke="#FFB020" stroke-width="1.4"/>
  <line x1="31" y1="18" x2="34" y2="18" stroke="#FFB020" stroke-width="1.4"/>
  <circle cx="18" cy="18" r="2.2" fill="#0A0A0B"/>
  <circle cx="18" cy="18" r="0.9" fill="#FFB020"/>
</svg>